<?xml version="1.0" encoding="utf-8"?>
<svg viewBox="-46.74872589111328 37.230743408203125 1082.3001708984375 377.3999328613281" width="1082.3001708984375" height="377.3999328613281" xmlns="http://www.w3.org/2000/svg"><linearGradient id="SVGID_37_" gradientUnits="userSpaceOnUse" x1="782.4479" y1="141.9087" x2="729.5959" y2="71.715">
		<stop offset="0" style="stop-color:#FFFFFF"/>
		<stop offset="1" style="stop-color:#FFFFFF;stop-opacity:0"/>
	</linearGradient><g transform="matrix(1, 0, 0, 1, -364.5487060546875, 14.630691528320312)"><g transform="matrix(1, 0, 0, 1, 0, 0)">
		<g>
			<g>
				<g>
					<path class="st16" d="M1360.3,181.1c-1,0-1.8-0.8-1.8-1.7l0-20.1c0-1,0.8-1.8,1.8-1.8l0,0c1,0,1.7,0.8,1.7,1.8l0,20&#10;&#9;&#9;&#9;&#9;&#9;&#9;C1362.1,180.3,1361.3,181.1,1360.3,181.1L1360.3,181.1z" style="fill: rgb(204, 204, 204);"/>
					<linearGradient id="SVGID_15_" gradientUnits="userSpaceOnUse" x1="1358.88" y1="171.1912" x2="1360.2085" y2="171.1912">
						<stop offset="0" style="stop-color:#FFFFFF"/>
						<stop offset="1" style="stop-color:#FFFFFF;stop-opacity:0"/>
					</linearGradient>
					<path class="st26" d="M1359.5,177.5c-0.4,0-0.7-0.4-0.7-0.9l0-10.7c0-0.5,0.3-0.9,0.7-0.9l0,0c0.4,0,0.7,0.4,0.7,0.9l0,10.7&#10;&#9;&#9;&#9;&#9;&#9;&#9;C1360.2,177,1359.9,177.5,1359.5,177.5L1359.5,177.5z" style="opacity: 0.7; fill: url('#SVGID_15_');"/>
					<path class="st27" d="M1360.3,164.3c-3.7,0-6.8-3-6.8-6.8s3-6.8,6.8-6.8s6.8,3,6.8,6.8C1367,161.3,1364,164.3,1360.3,164.3z" style="fill: rgb(178, 69, 34);"/>
				</g>
				<g>
					<path class="st16" d="M1329.5,184.5c-1,0-1.8-0.8-1.7-1.7l0-20.1c0-1,0.8-1.8,1.7-1.8l0,0c1,0,1.8,0.8,1.8,1.8l0,20&#10;&#9;&#9;&#9;&#9;&#9;&#9;C1331.2,183.7,1330.4,184.5,1329.5,184.5L1329.5,184.5z" style="fill: rgb(204, 204, 204);"/>
					<linearGradient id="SVGID_16_" gradientUnits="userSpaceOnUse" x1="1328.4589" y1="174.3032" x2="1329.7872" y2="174.3032">
						<stop offset="0" style="stop-color:#FFFFFF"/>
						<stop offset="1" style="stop-color:#FFFFFF;stop-opacity:0"/>
					</linearGradient>
					<path class="st28" d="M1329.1,180.6c-0.4,0-0.7-0.4-0.7-0.9l0-10.7c0-0.5,0.3-0.9,0.7-0.9l0,0c0.4,0,0.7,0.4,0.7,0.9l0,10.7&#10;&#9;&#9;&#9;&#9;&#9;&#9;C1329.8,180.2,1329.5,180.6,1329.1,180.6L1329.1,180.6z" style="opacity: 0.7; fill: url('#SVGID_16_');"/>
					<path class="st27" d="M1329.5,167.7c-3.7,0-6.8-3-6.8-6.8s3-6.8,6.8-6.8c3.7,0,6.8,3,6.8,6.8&#10;&#9;&#9;&#9;&#9;&#9;&#9;C1336.2,164.7,1333.2,167.7,1329.5,167.7z" style="fill: rgb(178, 69, 34);"/>
				</g>
				<g>
					<path class="st16" d="M1298.6,181.2c-1,0-1.8-0.8-1.8-1.8l0-20c0-1,0.8-1.8,1.7-1.8l0,0c1,0,1.8,0.8,1.7,1.8l0,20.1&#10;&#9;&#9;&#9;&#9;&#9;&#9;C1300.4,180.4,1299.6,181.2,1298.6,181.2L1298.6,181.2z" style="fill: rgb(204, 204, 204);"/>
					<linearGradient id="SVGID_17_" gradientUnits="userSpaceOnUse" x1="1297.4612" y1="171.1912" x2="1298.7896" y2="171.1912">
						<stop offset="0" style="stop-color:#FFFFFF"/>
						<stop offset="1" style="stop-color:#FFFFFF;stop-opacity:0"/>
					</linearGradient>
					<path class="st29" d="M1298.1,177.5c-0.4,0-0.7-0.4-0.7-0.9l0-10.7c0-0.5,0.3-0.9,0.7-0.9l0,0c0.4,0,0.7,0.4,0.7,0.9l0,10.7&#10;&#9;&#9;&#9;&#9;&#9;&#9;C1298.8,177,1298.5,177.5,1298.1,177.5L1298.1,177.5z" style="opacity: 0.7; fill: url('#SVGID_17_');"/>
					<path class="st27" d="M1298.6,164.4c-3.7,0-6.8-3-6.8-6.8c0-3.7,3-6.8,6.8-6.8c3.7,0,6.8,3,6.8,6.8&#10;&#9;&#9;&#9;&#9;&#9;&#9;C1305.4,161.3,1302.4,164.4,1298.6,164.4z" style="fill: rgb(178, 69, 34);"/>
				</g>
			</g>
			<g>
				<path class="st16" d="M1360.3,240.9c-1,0-1.7,0.8-1.8,1.8l0,20.1c0,1,0.8,1.8,1.8,1.7l0,0c1,0,1.7-0.8,1.7-1.8l0-20.1&#10;&#9;&#9;&#9;&#9;&#9;C1362.1,241.7,1361.3,240.9,1360.3,240.9L1360.3,240.9z" style="fill: rgb(204, 204, 204);"/>
				<path class="st16" d="M1298.7,240.9c-1,0-1.8,0.8-1.8,1.8l0,20c0,1,0.8,1.8,1.8,1.8l0,0c1,0,1.8-0.8,1.8-1.8l0-20.1&#10;&#9;&#9;&#9;&#9;&#9;C1300.4,241.7,1299.6,240.9,1298.7,240.9L1298.7,240.9z" style="fill: rgb(204, 204, 204);"/>
				<path class="st16" d="M1329.5,237.5c-1,0-1.8,0.8-1.7,1.8l0,20.1c0,1,0.8,1.8,1.7,1.7l0,0c1,0,1.7-0.8,1.8-1.8l0-20.1&#10;&#9;&#9;&#9;&#9;&#9;C1331.3,238.3,1330.5,237.5,1329.5,237.5L1329.5,237.5z" style="fill: rgb(204, 204, 204);"/>
				<path class="st27" d="M1360.3,257.7c-3.7,0-6.8,3-6.8,6.8c0,3.7,3,6.8,6.8,6.8c3.7,0,6.8-3,6.8-6.8&#10;&#9;&#9;&#9;&#9;&#9;C1367.1,260.7,1364.1,257.7,1360.3,257.7z" style="fill: rgb(178, 69, 34);"/>
				<path class="st27" d="M1298.7,257.7c-3.7,0-6.8,3-6.8,6.8c0,3.8,3,6.8,6.8,6.8c3.7,0,6.8-3,6.8-6.8&#10;&#9;&#9;&#9;&#9;&#9;C1305.4,260.7,1302.4,257.7,1298.7,257.7z" style="fill: rgb(178, 69, 34);"/>
				<path class="st27" d="M1329.5,254.3c-3.7,0-6.8,3-6.8,6.8c0,3.7,3,6.8,6.8,6.8c3.7,0,6.8-3,6.8-6.8&#10;&#9;&#9;&#9;&#9;&#9;C1336.3,257.4,1333.2,254.3,1329.5,254.3z" style="fill: rgb(178, 69, 34);"/>
			</g>
			<path class="st27" d="M1394.4,211.3c0,18.9-12.8,46.4-12.8,46.4c-48.7-19.6-96.7-8.7-96.7-8.7c-6.2-19.6-23.3-18.2-23.3-18.2&#10;&#9;&#9;&#9;&#9;l0-39c0,0,17.1,1.5,23.3-18.2c0,0,48,10.9,96.6-8.8C1381.5,164.9,1394.4,192.4,1394.4,211.3z" style="fill: rgb(178, 69, 34);"/>
			<linearGradient id="SVGID_18_" gradientUnits="userSpaceOnUse" x1="1304.6371" y1="269.0179" x2="1389.1123" y2="141.8875">
				<stop offset="0" style="stop-color:#231F20"/>
				<stop offset="1" style="stop-color:#231F20;stop-opacity:0"/>
			</linearGradient>
			<path class="st30" d="M1284.9,249c0,0,48-10.9,96.7,8.7c0,0,12.8-27.5,12.8-46.4c0-15-8.1-35.3-11.4-43.1&#10;&#9;&#9;&#9;&#9;c17.1,51.1-4,84.5-4,84.5c-35-17.6-92.7-8.4-92.7-8.4c-8.2-20.3-24.1-15.3-24.7-15.1l0,1.7C1261.7,230.9,1278.7,229.4,1284.9,249&#10;&#9;&#9;&#9;&#9;z" style="opacity: 0.51; fill: url('#SVGID_18_');"/>
			<g>
				<path d="M 1271.199951171875 196.10000610351562 L 1297 191.60000610351562 L 1296.800048828125 190.10000610351562 L 1271.199951171875 195 Z" class="st31" style="fill: rgb(255, 255, 255);"/>
				<path d="M 1271.199951171875 202.6999969482422 L 1333.4000244140625 193 L 1333.0999755859375 191.60000610351562 L 1271.199951171875 201.60000610351562 Z" class="st31" style="fill: rgb(255, 255, 255);"/>
				<path d="M 1271.199951171875 207.60000610351562 L 1362.0999755859375 191.89999389648438 L 1361.800048828125 190.5 L 1271.199951171875 206.39999389648438 Z" class="st31" style="fill: rgb(255, 255, 255);"/>
				<path d="M 1271.199951171875 212.5 L 1362.9000244140625 232.60000610351562 L 1363.199951171875 231.10000610351562 L 1271.199951171875 211.3000030517578 Z" class="st31" style="fill: rgb(255, 255, 255);"/>
				<path d="M 1271.199951171875 219 L 1330.5999755859375 233 L 1330.800048828125 231.5 L 1271.199951171875 217.89999389648438 Z" class="st31" style="fill: rgb(255, 255, 255);"/>
				<path d="M 1271.199951171875 225.39999389648438 L 1271.199951171875 224.1999969482422 L 1301.5 233.6999969482422 L 1301.0999755859375 235.1999969482422 Z" class="st31" style="fill: rgb(255, 255, 255);"/>
			</g>
			<g>
				<path class="st16" d="M1361.5,229.7c-3,0-5.5,2.5-5.5,5.5c0,3,2.4,5.4,5.5,5.4c3,0,5.4-2.4,5.4-5.4&#10;&#9;&#9;&#9;&#9;&#9;C1366.9,232.1,1364.5,229.7,1361.5,229.7z" style="fill: rgb(204, 204, 204);"/>
				<path class="st16" d="M1299.9,229.7c-3,0-5.4,2.5-5.4,5.5c0,3,2.4,5.4,5.4,5.4c3,0,5.5-2.4,5.5-5.5&#10;&#9;&#9;&#9;&#9;&#9;C1305.4,232.2,1302.9,229.7,1299.9,229.7z" style="fill: rgb(204, 204, 204);"/>
				<path class="st16" d="M1330.7,226.8c-3,0-5.4,2.5-5.4,5.5c0,3,2.5,5.5,5.5,5.5c3,0,5.4-2.5,5.4-5.5&#10;&#9;&#9;&#9;&#9;&#9;C1336.2,229.2,1333.7,226.8,1330.7,226.8z" style="fill: rgb(204, 204, 204);"/>
			</g>
			<g>
				<path class="st16" d="M1361.5,194.6c-3,0-5.5-2.4-5.5-5.5c0-3,2.5-5.4,5.5-5.4c3,0,5.4,2.4,5.4,5.4&#10;&#9;&#9;&#9;&#9;&#9;C1366.9,192.1,1364.5,194.6,1361.5,194.6z" style="fill: rgb(204, 204, 204);"/>
				<path class="st16" d="M1299.9,194.6c-3,0-5.5-2.4-5.4-5.4c0-3,2.4-5.5,5.4-5.5c3,0,5.5,2.4,5.5,5.5&#10;&#9;&#9;&#9;&#9;&#9;C1305.4,192.1,1302.9,194.6,1299.9,194.6z" style="fill: rgb(204, 204, 204);"/>
				<linearGradient id="SVGID_19_" gradientUnits="userSpaceOnUse" x1="1296.278" y1="188.0999" x2="1300.9932" y2="188.0999">
					<stop offset="0" style="stop-color:#FFFFFF"/>
					<stop offset="1" style="stop-color:#FFFFFF;stop-opacity:0"/>
				</linearGradient>
				<path class="st32" d="M1300.4,189.8c-2.6,2-5.4-1-3.4-3.5C1299.5,184.5,1302.3,187.3,1300.4,189.8z" style="opacity: 0.83; fill: url('#SVGID_19_');"/>
				<radialGradient id="SVGID_20_" cx="1302.0538" cy="156.564" r="6.499" gradientUnits="userSpaceOnUse">
					<stop offset="0" style="stop-color:#231F20;stop-opacity:0"/>
					<stop offset="0.8556" style="stop-color:#231F20;stop-opacity:0.8556"/>
					<stop offset="1" style="stop-color:#231F20"/>
				</radialGradient>
				<path class="st33" d="M1300.1,163.3c-4.4,1-8.1-2.9-7-7.2c0.6-2.1,2.3-3.8,4.4-4.2c4.2-0.8,7.9,2.9,6.9,7.1&#10;&#9;&#9;&#9;&#9;&#9;C1304,161.1,1302.3,162.8,1300.1,163.3z" style="opacity: 0.24; fill: url('#SVGID_20_');"/>
				<radialGradient id="SVGID_21_" cx="1302.7877" cy="263.4666" r="6.499" gradientUnits="userSpaceOnUse">
					<stop offset="0" style="stop-color:#231F20;stop-opacity:0"/>
					<stop offset="0.8556" style="stop-color:#231F20;stop-opacity:0.8556"/>
					<stop offset="1" style="stop-color:#231F20"/>
				</radialGradient>
				<path class="st34" d="M1300.9,270.2c-4.4,1-8.1-2.9-7-7.2c0.6-2.1,2.3-3.8,4.4-4.2c4.2-0.8,7.9,2.9,6.9,7.1&#10;&#9;&#9;&#9;&#9;&#9;C1304.8,268,1303,269.7,1300.9,270.2z" style="opacity: 0.24; fill: url('#SVGID_21_');"/>
				<radialGradient id="SVGID_22_" cx="1333.7218" cy="260.2499" r="6.499" gradientUnits="userSpaceOnUse">
					<stop offset="0" style="stop-color:#231F20;stop-opacity:0"/>
					<stop offset="0.8556" style="stop-color:#231F20;stop-opacity:0.8556"/>
					<stop offset="1" style="stop-color:#231F20"/>
				</radialGradient>
				<path class="st35" d="M1331.8,267c-4.4,1-8.1-2.9-7-7.2c0.6-2.1,2.3-3.8,4.4-4.2c4.2-0.8,7.9,2.9,6.9,7.1&#10;&#9;&#9;&#9;&#9;&#9;C1335.7,264.8,1334,266.5,1331.8,267z" style="opacity: 0.24; fill: url('#SVGID_22_');"/>
				<radialGradient id="SVGID_23_" cx="1363.5966" cy="263.4666" r="6.499" gradientUnits="userSpaceOnUse">
					<stop offset="0" style="stop-color:#231F20;stop-opacity:0"/>
					<stop offset="0.8556" style="stop-color:#231F20;stop-opacity:0.8556"/>
					<stop offset="1" style="stop-color:#231F20"/>
				</radialGradient>
				<path class="st36" d="M1361.7,270.2c-4.4,1-8.1-2.9-7-7.2c0.6-2.1,2.3-3.8,4.4-4.2c4.2-0.8,7.9,2.9,6.9,7.1&#10;&#9;&#9;&#9;&#9;&#9;C1365.6,268,1363.8,269.7,1361.7,270.2z" style="opacity: 0.24; fill: url('#SVGID_23_');"/>
				<radialGradient id="SVGID_24_" cx="1332.8038" cy="160.064" r="6.499" gradientUnits="userSpaceOnUse">
					<stop offset="0" style="stop-color:#231F20;stop-opacity:0"/>
					<stop offset="0.8556" style="stop-color:#231F20;stop-opacity:0.8556"/>
					<stop offset="1" style="stop-color:#231F20"/>
				</radialGradient>
				<path class="st37" d="M1333.9,165.4c-6.4,4.9-13.5-2.5-8.4-8.7C1331.6,152.1,1338.6,159.1,1333.9,165.4z" style="opacity: 0.24; fill: url('#SVGID_24_');"/>
				<radialGradient id="SVGID_25_" cx="1363.4706" cy="156.573" r="6.499" gradientUnits="userSpaceOnUse">
					<stop offset="0" style="stop-color:#231F20;stop-opacity:0"/>
					<stop offset="0.8556" style="stop-color:#231F20;stop-opacity:0.8556"/>
					<stop offset="1" style="stop-color:#231F20"/>
				</radialGradient>
				<path class="st38" d="M1364.5,161.9c-6.4,4.9-13.5-2.5-8.4-8.7C1362.3,148.6,1369.2,155.7,1364.5,161.9z" style="opacity: 0.24; fill: url('#SVGID_25_');"/>
				<path class="st16" d="M1330.7,197.5c-3,0-5.4-2.4-5.5-5.4c0-3,2.4-5.5,5.5-5.5c3,0,5.4,2.4,5.4,5.4&#10;&#9;&#9;&#9;&#9;&#9;C1336.1,195,1333.7,197.5,1330.7,197.5z" style="fill: rgb(204, 204, 204);"/>
				<linearGradient id="SVGID_26_" gradientUnits="userSpaceOnUse" x1="1327.3612" y1="191.7374" x2="1332.0764" y2="191.7374">
					<stop offset="0" style="stop-color:#FFFFFF"/>
					<stop offset="1" style="stop-color:#FFFFFF;stop-opacity:0"/>
				</linearGradient>
				<path class="st39" d="M1331.5,193.5c-2.6,2-5.4-1-3.4-3.5C1330.6,188.1,1333.3,191,1331.5,193.5z" style="opacity: 0.83; fill: url('#SVGID_26_');"/>
				<linearGradient id="SVGID_27_" gradientUnits="userSpaceOnUse" x1="1358.3254" y1="188.4041" x2="1363.0406" y2="188.4041">
					<stop offset="0" style="stop-color:#FFFFFF"/>
					<stop offset="1" style="stop-color:#FFFFFF;stop-opacity:0"/>
				</linearGradient>
				<path class="st40" d="M1362.4,190.1c-2.6,2-5.4-1-3.4-3.5C1361.5,184.8,1364.3,187.6,1362.4,190.1z" style="opacity: 0.83; fill: url('#SVGID_27_');"/>
				<linearGradient id="SVGID_28_" gradientUnits="userSpaceOnUse" x1="1296.2778" y1="235.6395" x2="1300.9932" y2="235.6395">
					<stop offset="0" style="stop-color:#FFFFFF"/>
					<stop offset="1" style="stop-color:#FFFFFF;stop-opacity:0"/>
				</linearGradient>
				<path class="st41" d="M1300.4,237.4c-2.6,2-5.4-1-3.4-3.5C1299.5,232,1302.3,234.9,1300.4,237.4z" style="opacity: 0.83; fill: url('#SVGID_28_');"/>
				<linearGradient id="SVGID_29_" gradientUnits="userSpaceOnUse" x1="1327.3612" y1="232.5795" x2="1332.0764" y2="232.5795">
					<stop offset="0" style="stop-color:#FFFFFF"/>
					<stop offset="1" style="stop-color:#FFFFFF;stop-opacity:0"/>
				</linearGradient>
				<path class="st42" d="M1331.5,234.3c-2.6,2-5.4-1-3.4-3.5C1330.6,229,1333.3,231.8,1331.5,234.3z" style="opacity: 0.83; fill: url('#SVGID_29_');"/>
				<linearGradient id="SVGID_30_" gradientUnits="userSpaceOnUse" x1="1357.9709" y1="236.1394" x2="1362.6862" y2="236.1394">
					<stop offset="0" style="stop-color:#FFFFFF"/>
					<stop offset="1" style="stop-color:#FFFFFF;stop-opacity:0"/>
				</linearGradient>
				<path class="st43" d="M1362.1,237.9c-2.6,2-5.4-1-3.4-3.5C1361.2,232.5,1364,235.4,1362.1,237.9z" style="opacity: 0.83; fill: url('#SVGID_30_');"/>
			</g>
			<linearGradient id="SVGID_31_" gradientUnits="userSpaceOnUse" x1="1277.9596" y1="183.519" x2="1292.047" y2="184.1906">
				<stop offset="0" style="stop-color:#FFFFFF"/>
				<stop offset="1" style="stop-color:#FFFFFF;stop-opacity:0"/>
			</linearGradient>
			<path class="st44" d="M1273.2,191.6c0,0,13.7-4.4,13.2-15.9C1286.3,175.7,1289.9,189.2,1273.2,191.6z" style="opacity: 0.83; fill: url('#SVGID_31_');"/>
			<linearGradient id="SVGID_32_" gradientUnits="userSpaceOnUse" x1="1289.9617" y1="171.6762" x2="1382.1292" y2="176.0702">
				<stop offset="0" style="stop-color:#FFFFFF"/>
				<stop offset="1" style="stop-color:#FFFFFF;stop-opacity:0"/>
			</linearGradient>
			<path class="st45" d="M1296,176.4c0,0,43,12.3,84.8-9.5C1380.8,166.9,1342.8,194.4,1296,176.4z" style="opacity: 0.7; fill: url('#SVGID_32_');"/>
		</g>
		<linearGradient id="SVGID_33_" gradientUnits="userSpaceOnUse" x1="449.2598" y1="388.6667" x2="803.7213" y2="34.2051">
			<stop offset="0" style="stop-color:#C98012"/>
			<stop offset="0.264" style="stop-color:#9D5505"/>
			<stop offset="0.5486" style="stop-color:#9D5505"/>
			<stop offset="0.9944" style="stop-color:#D88603"/>
		</linearGradient>
		<path class="st46" d="M636.5,340.7c19.7-14.6,34.3-22.1,44.4-25.8c18.3-3.2,35.3,6.6,63.9,23.7c36.4,21.8,82.9,15.6,107.5-0.8&#10;&#9;&#9;&#9;c32.5-19.7,49.6-68.8,49.6-126.2c0-57.4-17.2-106.4-49.7-126.1c-24.6-16.4-71.1-22.5-107.5-0.7c-26.4,15.8-43.1,27.3-59.7,24.3&#10;&#9;&#9;&#9;c-10.4-1.9-25.9-10.4-48.6-27.3c-44.7-33-87.8-59.2-135.8-57.2c-48,2-122.6,37.4-122.5,181.8l0,10.1&#10;&#9;&#9;&#9;c0.1,144.4,74.6,179.7,122.7,181.7C548.8,399.9,591.9,373.7,636.5,340.7z" style="fill: url('#SVGID_33_');"/>
		<path class="st47" d="M749.3,274.9c-34.9,0-63.3-28.3-63.3-63.2c0-34.9,28.3-63.2,63.2-63.3c34.9,0,63.3,28.3,63.3,63.2&#10;&#9;&#9;&#9;C812.5,246.5,784.2,274.8,749.3,274.9z" style="fill: rgb(229, 166, 94);"/>
		<path class="st48" d="M749.3,261.3c-27.4,0-49.7-22.2-49.7-49.6c0-27.4,22.2-49.6,49.6-49.7c27.4,0,49.6,22.2,49.7,49.6&#10;&#9;&#9;&#9;C798.9,239,776.7,261.2,749.3,261.3z" style="fill: rgb(13, 1, 0);"/>
		<path class="st49" d="M798.9,211.6c0-4.2-0.5-8.3-1.5-12.2c-8.4-15.6-24.8-26.3-43.8-26.3c-27.4,0-49.6,22.3-49.6,49.7&#10;&#9;&#9;&#9;c0,4.2,0.5,8.3,1.5,12.2c8.4,15.6,24.8,26.3,43.8,26.3C776.7,261.2,798.9,239,798.9,211.6z" style="fill: rgb(46, 26, 21);"/>
		<g class="st50" style="opacity: 0.58;">
			<linearGradient id="SVGID_34_" gradientUnits="userSpaceOnUse" x1="696.4194" y1="125.2511" x2="713.4194" y2="35.2511">
				<stop offset="0" style="stop-color:#231F20"/>
				<stop offset="1" style="stop-color:#231F20;stop-opacity:0"/>
			</linearGradient>
			<path class="st51" d="M852.2,85.4c-9.4-6.2-21.9-11-35.8-13.2c0.1,0,80.7,32.7,74.7,122.3l-42,29.7l-60.5,8.4l0,7.1l0,0&#10;&#9;&#9;&#9;&#9;l105.5,3.1c0,0-9,103.3-89,99.5c-72.7-3.5-85.6-48.8-125.1-35.6c-56.9,19-102.9,86.3-176.2,81c-43.5-3.2-66.6-13.9-78.8-23.3&#10;&#9;&#9;&#9;&#9;c24,24.3,52.9,32.8,75.9,33.7c48,1.9,91.1-24.3,135.7-57.4c19.7-14.6,34.3-22.1,44.4-25.8c18.3-3.2,35.3,6.6,63.9,23.7&#10;&#9;&#9;&#9;&#9;c36.4,21.8,82.9,15.6,107.5-0.8c32.5-19.7,49.6-68.8,49.6-126.2C901.8,154.2,884.6,105.1,852.2,85.4z" style="opacity: 0.51; fill: url('#SVGID_34_');"/>
			<linearGradient id="SVGID_35_" gradientUnits="userSpaceOnUse" x1="412.0974" y1="349.0617" x2="412.0974" y2="349.0616">
				<stop offset="0" style="stop-color:#231F20"/>
				<stop offset="1" style="stop-color:#231F20;stop-opacity:0"/>
			</linearGradient>
			<path d="M 412.1000061035156 349.1000061035156 L 412.1000061035156 349.1000061035156 L 412.1000061035156 349.1000061035156 Z" class="st52" style="opacity: 0.51; fill: url('#SVGID_35_');"/>
		</g>
		<path d="M 541.4000244140625 280.5 L 541.4000244140625 143 L 563.5 143 L 563.5999755859375 280.5 Z" class="st53" style="fill: rgb(127, 47, 18);"/>
		
			<path d="M 515.299988 208.800003 H 593.199989 V 214.700003 H 515.299988 V 208.800003 Z" transform="matrix(4.940169e-04 1 -1 4.940169e-04 765.7373 -342.6639)" class="st16" style="fill: rgb(204, 204, 204);"/>
		<g>
			<path d="M 788.5 239.6999969482422 L 788.4000244140625 183.5 L 1271.199951171875 191.8000030517578 L 1271.199951171875 231 Z" class="st54" style="fill: rgb(122, 46, 17);"/>
			<path class="st16" d="M964,236.5l0-50l-4,0l0,50.1L964,236.5z M1231.3,231.7l0-40.6l-4-0.1l0,40.7L1231.3,231.7z M920.1,237.3&#10;&#9;&#9;&#9;&#9;l0-51.6l-4-0.1l0,51.7L920.1,237.3z M874.2,238.1l0-53.2l-2,0l0,53.3L874.2,238.1z M830.4,239l0-54.7l-4-0.1l0,54.8L830.4,239z&#10;&#9;&#9;&#9;&#9; M1007.9,235.7l0-48.5l-2,0l0,48.6L1007.9,235.7z M1141.5,233.3l0-43.7l-2-0.1l0,43.8L1141.5,233.3z M1187.4,232.5l0-42.1l-4-0.1&#10;&#9;&#9;&#9;&#9;l0,42.3L1187.4,232.5z M1053.8,234.9l0-46.9l-4,0l0,47L1053.8,234.9z M1097.7,234.1l0-45.3l-4-0.1l0,45.4L1097.7,234.1z" style="fill: rgb(204, 204, 204);"/>
		</g>
		<g>
			<path d="M 545.7000122070312 193.10000610351562 L 1271.199951171875 196.10000610351562 L 1271.199951171875 195.60000610351562 L 1271.199951171875 195 L 545.7000122070312 191.89999389648438 Z" class="st31" style="fill: rgb(255, 255, 255);"/>
			<path d="M 545.7000122070312 199.6999969482422 L 1271.199951171875 202.6999969482422 L 1271.199951171875 202.1999969482422 L 1271.199951171875 201.60000610351562 L 545.7000122070312 198.5 Z" class="st31" style="fill: rgb(255, 255, 255);"/>
			<path d="M 545.7000122070312 216.1999969482422 L 1271.199951171875 212.5 L 1271.199951171875 211.89999389648438 L 1271.199951171875 211.3000030517578 L 545.7000122070312 215.10000610351562 Z" class="st31" style="fill: rgb(255, 255, 255);"/>
			<path d="M 545.7000122070312 222.8000030517578 L 1271.199951171875 219 L 1271.199951171875 218.5 L 1271.199951171875 217.89999389648438 L 545.7000122070312 221.6999969482422 Z" class="st31" style="fill: rgb(255, 255, 255);"/>
			<path d="M 545.7000122070312 229.1999969482422 L 1271.199951171875 225.39999389648438 L 1271.199951171875 224.8000030517578 L 1271.199951171875 224.1999969482422 L 545.7000122070312 228 Z" class="st31" style="fill: rgb(255, 255, 255);"/>
			<path d="M 545.7000122070312 207.89999389648438 L 1271.199951171875 207.60000610351562 L 1271.199951171875 206.39999389648438 L 545.7000122070312 206.8000030517578 Z" class="st31" style="fill: rgb(255, 255, 255);"/>
		</g>
		<linearGradient id="SVGID_36_" gradientUnits="userSpaceOnUse" x1="365.1884" y1="219.2344" x2="469.7685" y2="202.223">
			<stop offset="0" style="stop-color:#FFFFFF"/>
			<stop offset="1" style="stop-color:#FFFFFF;stop-opacity:0"/>
		</linearGradient>
		<path class="st55" d="M472.8,41c0,0-105,55.7-95.2,170.4c9.8,114.7,54.2,157.8,54.2,157.8S317.8,181.8,472.8,41z" style="opacity: 0.58; fill: url('#SVGID_36_');"/>
	</g><path class="st56" d="M686,116.3c0,0,12.7,8,30.2-3s45.6-38,96.3-34c0,0-65.3,14.8-91.3,39.8C709.6,130.2,686,116.3,686,116.3z" style="fill: url('#SVGID_37_');" transform="matrix(1, 0, 0, 1, 0, 0)"/></g></svg>